<svg xmlns="http://www.w3.org/2000/svg" xmlns:xlink="http://www.w3.org/1999/xlink" width="88" height="26" viewBox="0.5 0 92 30"><defs><path id="a" d="M8.63 27h7.83l7.13-23.92h-6.41l-2.5 10.4-1.78 7.63c-1.07-2.43-1.42-4.86-2.14-7.63L8.63 3.08H1.5L8.63 27zm17.45 0h5.35v-5.55L30 9.32l2.14 6.93 1.42 4.51h2.85l1.43-4.51 2.14-6.93-1.07 12.13V27h5.7V3.08h-6.77l-2.14 7.97-.71 3.12-.71-3.46-1.43-7.28h-7.12L26.08 27zm23.16 0h7.13c7.12 0 11.75-3.47 11.75-12.13 0-8.67-4.63-11.79-11.75-11.79h-7.13V27zm6.41-5.2V7.93c3.57 0 6.06 1.39 6.06 6.94 0 5.54-2.49 6.93-5.7 6.93h-.36zM81.31 27c4.27 0 8.19-3.47 8.19-10.05 0-5.55-3.21-9.02-7.48-9.02a7.29 7.29 0 00-4.99 1.74V1h-6.41v25.65h5.7l.35-2.08c1.79 1.74 3.57 2.43 4.99 2.43h-.35zm-4.28-5.89v-6.94c1.07-1.04 1.78-1.38 2.85-1.38 1.78 0 2.85 1.38 2.85 4.5 0 3.47-1.42 4.51-2.85 4.51a3.62 3.62 0 01-2.85-.69z"/><mask id="b" width="92" height="30" x="-.5" y="-1" maskUnits="userSpaceOnUse"><path fill="#fff" d="M-.5-1h92v30h-92z"/><use xlink:href="#a"/></mask></defs><use fill="#40b883" xlink:href="#a"/><g mask="url(#b)"><use fill-opacity="0" stroke="#fff" stroke-width="2" xlink:href="#a"/></g></svg>