<svg xmlns="http://www.w3.org/2000/svg" width="94.9" height="28.7" viewBox="0 0 25.1 7.6"><g fill="#40b883" stroke="#fff" stroke-miterlimit="1" stroke-width=".1" aria-label="VMDb"><path d="M2 7h2.2l2-6.9H4.4l-.7 3-.5 2.2h0c-.3-.7-.4-1.4-.6-2.2L2 .1h-2zM6.9 7h1.5V5.4L8 1.9h0l.6 2 .4 1.3h.8l.4-1.3.6-2h0l-.3 3.5V7h1.6V.1h-1.9l-.6 2.3-.2.9h0l-.2-1L8.8.2h-2zM13.4 7h2c2 0 3.3-1 3.3-3.5S17.4.1 15.4.1h-2zm1.8-1.5v-4h0c1 0 1.7.4 1.7 2s-.7 2-1.6 2zM22.4 7c1.2 0 2.3-1 2.3-2.9 0-1.6-.9-2.6-2.1-2.6a2 2 0 00-1.4.5h0V-.5h-1.8v7.4H21l.1-.6h0c.5.5 1 .7 1.4.7zM22 5.5a1 1 0 01-.8-.2v-2c.3-.3.5-.4.8-.4.5 0 .8.4.8 1.3 0 1-.4 1.3-.8 1.3z"/></g></svg>